#!OML:ASF E:/inclinewalkrobotboard/Project1/Captureday1/Session1/subject1.ASF
:FULLY-SPECIFIED
:DEGREES
151
root 0 0 0 1.9384331643942305 1.225764169060167 -1.0646991438640914
lowerback 11.372312803252266 -0.26532262474821355 -2.3234368904795977
upperback 2.2671877389666895 -0.6585217716244496 1.0740819952123926
thorax -3.8838251513777537 -0.2385501357945513 2.4036569635302922
lowerneck -6.056990413443964 -2.052277506669647 -0.1132795561602391
upperneck 22.70684456492963 -3.14164946926833 2.5281174881767
head 8.55982810113064 -1.3328705813395267 0.6424013642106355
rclavicle 4.53234052945589E-15 2.6016169164581313E-15
rhumerus -5.640077567499148 14.161830347869081 -48.6457659892902
rradius 109.88437217072504
rwrist -43.91310827929767
rhand -4.14329127133534 -54.91454614227404
rfingers 7.125020000000005
rthumb 21.62761153077567 -83.52244519880125
lclavicle 1.1341370375064683E-15 3.865395344937707E-15
lhumerus -44.572826101649646 -7.61826958110741 85.27821225510266
lradius 62.14258394966648
lwrist 7.337421764445157
lhand -11.694120344817147 -29.050200744650486
lfingers 7.125020000000019
lthumb 14.361235724753659 0.5138622195623554
rfemur 1.223220977361593 -0.5415199788721763 -3.011148640000643
rtibia -4.595267518141082
rfoot 0.9399277692750401 0.6638422323324584
rtoes -0.7266526480399726
lfemur 0.6195553511850429 -6.255960908062319 -10.14424175623288
ltibia 22.49100121907027
lfoot -28.019364248206493 14.196865207486683
ltoes -60.09075747434007
152
root 0 0 0 1.972871653093522 1.216305484725409 -1.0448203123742572
lowerback 11.152024136131248 -0.27390640936619837 -2.30908876197475
upperback 2.169643133580688 -0.6680382286724602 1.089522088844511
thorax -3.8609807555132614 -0.24178224707092877 2.416260271748442
lowerneck -6.236405304937342 -2.020690612181469 -0.14778130753660434
upperneck 23.542273962419333 -3.113744006465244 2.5031884404971962
head 8.868302655346037 -1.3110746071132384 0.6330597719200424
rclavicle 4.732038490142058E-15 2.653681371927546E-15
rhumerus -6.48773139266838 14.079387212820375 -49.320264737737176
rradius 108.78166796369773
rwrist -43.62522595683449
rhand -4.094986221933427 -54.845921407161605
rfingers 7.1250200000000055
rthumb 21.673560748849532 -83.44674967851957
lclavicle 1.347649434294548E-15 3.884342104725606E-15
lhumerus -44.555019099681104 -7.599709840921144 85.27933688364324
lradius 62.09075841813017
lwrist 7.329349544274853
lhand -11.710150926309298 -28.98890025338438
lfingers 7.125020000000019
lthumb 14.34567208262284 0.5726811965569212
rfemur 1.2007549260808839 -0.5263279884959 -2.956345863286403
rtibia -4.5508176625050005
rfoot 0.904029491180812 0.6461361442928983
rtoes -0.7311357758606973
lfemur 0.6252474672401354 -6.242787427866712 -10.112414523934639
ltibia 22.473797413461703
lfoot -28.071933723128954 14.232621336277623
ltoes -60.25601513488228
153
root 0 0 0 2.001623466733082 1.220395889133988 -1.040879713454887
lowerback 11.082461196402479 -0.2767663511652393 -2.3008084761354057
upperback 2.1298737051350307 -0.6709310587488897 1.0931008781698672
thorax -3.8626514597327466 -0.24289694151820285 2.416154466998882
lowerneck -6.312725298231558 -2.0087689489822305 -0.15942078382843894
upperneck 23.85329587032792 -3.1031699537586643 2.485263767561323
head 8.985197216855186 -1.3031134053648574 0.6263994599412979
rclavicle 4.864332745057178E-15 2.6243234344441293E-15
rhumerus -6.851749027110413 14.051051797932942 -49.62988434539008
rradius 108.3116264974208
rwrist -43.458123788241
rhand -4.080910626834104 -54.80821967008829
rfingers 7.1250200000000055
rthumb 21.686983017215084 -83.40966295728411
lclavicle 1.5025598949969401E-15 3.863467589184156E-15
lhumerus -44.554937100610836 -7.581367186628496 85.27981967631871
lradius 62.057932133605036
lwrist 7.313302435893588
lhand -11.71107539177217 -28.972630581668408
lfingers 7.125020000000019
lthumb 14.344601334590557 0.588665696421721
rfemur 1.1952946450668192 -0.5219440235512183 -2.9445246862122776
rtibia -4.549078553820799
rfoot 0.8927916973390797 0.6412134967882177
rtoes -0.7356140360463195
lfemur 0.6658859332454954 -6.274678313189792 -10.112692284570475
ltibia 22.44064327814022
lfoot -28.110467748704146 14.264468188640002
ltoes -60.284479758364824
154
root 0 0 0 2.025473758190122 1.2236069069118543 -1.0395872824565426
lowerback 11.046733542771584 -0.2788793032167599 -2.2941965350711815
upperback 2.103833429563127 -0.6730550765309888 1.0951302145288577
thorax -3.869049606425229 -0.2438337234869702 2.4147685912150942
lowerneck -6.365682217727487 -2.0003447991358474 -0.1652115219648791
upperneck 24.050195809416515 -3.0947592562204216 2.4673435308449423
head 9.060138885501614 -1.297571949387785 0.6198157423609154
rclavicle 4.949238508795877E-15 2.626059860508008E-15
rhumerus -7.137660077255937 14.034298621582973 -49.87266136815791
rradius 107.97489998408068
rwrist -43.302733057531064
rhand -4.080746187512489 -54.76877208163987
rfingers 7.1250200000000055
rthumb 21.687047680006227 -83.37138191180901
lclavicle 1.6031091648753823E-15 3.849405357850026E-15
lhumerus -44.55076670457461 -7.566176938343826 85.28828152681832
lradius 62.02509612792454
lwrist 7.294148877680769
lhand -11.709127770299133 -28.965225144615847
lfingers 7.125020000000019
lthumb 14.34638936384896 0.5955925029171283
rfemur 1.198543274545968 -0.5215669686473507 -2.948767955154599
rtibia -4.5648790001074495
rfoot 0.8902743466501697 0.6414537742807149
rtoes -0.7401451259312049
lfemur 0.7029001887144029 -6.308753391354234 -10.118961715137319
ltibia 22.409894245242004
lfoot -28.139300735487794 14.28935018084248
ltoes -60.27810097480279
155
root 0 0 0 2.0431287187028313 1.2253986056312245 -1.038091556146143
lowerback 11.027088585473464 -0.28110511352689993 -2.2898882316174483
upperback 2.0840364738450345 -0.6755907484729697 1.096511224374764
thorax -3.878191485528122 -0.24504263179880326 2.4138869296961656
lowerneck -6.407115142584338 -1.993730550940454 -0.16814568391855755
upperneck 24.180366682314016 -3.0873010668117993 2.4504154633516713
head 9.110796341270387 -1.2932622772672828 0.6136931319549681
rclavicle 5.0071743545369754E-15 2.623389178508536E-15
rhumerus -7.3609277206640265 14.015728979225809 -50.06222425794111
rradius 107.71616393242383
rwrist -43.16885588806593
rhand -4.083482507220802 -54.73763531696337
rfingers 7.1250200000000055
rthumb 21.684333831597705 -83.34173198091148
lclavicle 1.6677312437971723E-15 3.835032249510771E-15
lhumerus -44.54472029759448 -7.55394333642885 85.30002015381311
lradius 61.995286683998536
lwrist 7.2752382852356465
lhand -11.705848311347015 -28.963141266890567
lfingers 7.125020000000019
lthumb 14.349404518127606 0.5973381658169075
rfemur 1.2035702549449168 -0.5228581378325687 -2.9578360493653317
rtibia -4.582079201838756
rfoot 0.8920743165771574 0.6435437191455553
rtoes -0.7433256663758006
lfemur 0.7344771672983041 -6.338455732475866 -10.128526936206313
ltibia 22.386123151746936
lfoot -28.15733714599937 14.305366838370148
ltoes -60.251695805384415
156
root 0 0 0 2.0609967840910044 1.2256525066763468 -1.0383663657560542
lowerback 11.01905222366419 -0.2829373958136704 -2.284752019853931
upperback 2.0690133277392326 -0.6775087002362086 1.0978316610251173
thorax -3.8887010162436124 -0.24602579124344703 2.4122168576999647
lowerneck -6.442036184348511 -1.9875649710783767 -0.16882096540443292
upperneck 24.286083606383556 -3.079562595440022 2.431236249000899
head 9.152191495494169 -1.289267188358026 0.6067381917184962
rclavicle 5.0240897563107516E-15 2.6753900329700257E-15
rhumerus -7.632444242741235 14.01274181082304 -50.294993366672614
rradius 107.44696280681957
rwrist -42.98242351228677
rhand -4.0996072601705915 -54.68516264657071
rfingers 7.125020000000006
rthumb 21.66868890658559 -83.29100427883336
lclavicle 1.6792372940660878E-15 3.854989340617113E-15
lhumerus -44.52296504894828 -7.548009552773868 85.32740013270106
lradius 61.95776118490197
lwrist 7.254098643983676
lhand -11.703081559213128 -28.958702144672568
lfingers 7.125020000000018
lthumb 14.351790596422294 0.6008870414840359
rfemur 1.2115966004285186 -0.525283463333456 -2.970818308046619
rtibia -4.603016287582264
rfoot 0.8963694866116612 0.647187306865733
rtoes -0.746108430658462
lfemur 0.7591354117441336 -6.365031894945647 -10.13514448796793
ltibia 22.36307861911048
lfoot -28.17587604373974 14.321831217706796
ltoes -60.23265787865667
157
root 0 0 0 2.070030765711888 1.2275927594978548 -1.0351257045223345
lowerback 11.014573134211208 -0.28548990693331067 -2.284536147533494
upperback 2.0555169971323677 -0.6809442113203863 1.098012810536729
thorax -3.900230602931291 -0.24772066009810578 2.4123877791267168
lowerneck -6.470874696409381 -1.9836716339356477 -0.1697879152966446
upperneck 24.337334117835542 -3.0744168396191123 2.4184369701884973
head 9.174310023983807 -1.286795237661931 0.6022744828136879
rclavicle 5.078013391920104E-15 2.639029062776317E-15
rhumerus -7.740834088896264 13.981993040966884 -50.38858553894593
rradius 107.29821854048353
rwrist -42.90370644221538
rhand -4.097886383856396 -54.67970308423923
rfingers 7.125020000000006
rthumb 21.670288631399906 -83.28758394601138
lclavicle 1.7361491485864E-15 3.836631781116356E-15
lhumerus -44.52214293757483 -7.538581720777014 85.33405200181515
lradius 61.93939722774216
lwrist 7.2398726670896245
lhand -11.698830855265301 -28.962736231411373
lfingers 7.125020000000018
lthumb 14.355686158139115 0.5972312751931987
rfemur 1.213109860735785 -0.5266557010749806 -2.9772605202406783
rtibia -4.61063279073494
rfoot 0.8994407113874319 0.6487112246294315
rtoes -0.7470400446146928
lfemur 0.7866325785600248 -6.387349126833341 -10.14767583371871
ltibia 22.349067257056753
lfoot -28.182036419548545 14.32744010229707
ltoes -60.191947712400896
